# xmcd
#
# Track frame offsets: 
#        150
#        16039
#        29140
#        45296
#        65553
#        81735
#        97325
#        113614
#        127254
#        142487
#        154013
#
# Disc length: 2555 seconds
#
# Revision: 0
# Processed by: cddbd v1.5.2PL0 Copyright (c) Steve Scherf et al.
# Submitted via: ExactAudioCopyFreeDBPlugin 1.0
#
DISCID=a209f90b
DTITLE=Bursey, Brison Band - Expectations and Parking Lots
DYEAR=2010
DGENRE=Country-Rock
TTITLE0=Solid Ground
TTITLE1=Hearts to Break
TTITLE2=California Can
TTITLE3=Look at You Now (Wedding Gown)
TTITLE4=Done My Time
TTITLE5=I've been Waiting
TTITLE6=Save Me
TTITLE7=It Ain't Always Easy
TTITLE8=Walking Away
TTITLE9=Same Time
TTITLE10=Balloon
EXTD=
EXTT0=
EXTT1=
EXTT2=
EXTT3=
EXTT4=
EXTT5=
EXTT6=
EXTT7=
EXTT8=
EXTT9=
EXTT10=
PLAYORDER=
